<svg width="1110" height="263" viewBox="0 0 1110 263" fill="none" xmlns="http://www.w3.org/2000/svg">
<circle cx="131.5" cy="131.5" r="131.5" fill="#E8F2FC"/>
<path d="M194.969 76.844L229.858 156.26C229.889 156.354 229.952 156.447 229.983 156.573C230.014 156.604 230.014 156.666 230.046 156.729C230.077 156.76 230.077 156.823 230.108 156.854C230.108 156.885 230.108 156.885 230.139 156.917C230.139 156.948 230.171 156.979 230.171 157.011C230.202 157.073 230.202 157.167 230.233 157.23C230.265 157.292 230.265 157.386 230.296 157.449C230.296 157.48 230.296 157.511 230.327 157.543C230.327 157.574 230.358 157.605 230.358 157.636C230.358 157.668 230.358 157.699 230.39 157.73C230.39 157.793 230.421 157.856 230.421 157.918V157.949C230.421 158.075 230.452 158.168 230.452 158.294C230.452 158.294 230.452 158.294 230.452 158.325C230.452 158.387 230.452 158.45 230.452 158.481C230.452 158.544 230.452 158.575 230.452 158.638C230.452 158.669 230.452 158.669 230.452 158.669C230.452 158.826 230.452 158.982 230.452 159.107C230.452 159.138 230.452 159.201 230.452 159.264C230.452 159.326 230.452 159.357 230.421 159.42C230.421 159.451 230.421 159.514 230.39 159.576C230.39 159.67 230.358 159.764 230.358 159.858C230.358 159.921 230.327 159.983 230.327 160.046C230.296 160.171 230.265 160.327 230.233 160.453C230.202 160.546 230.171 160.64 230.139 160.734C230.108 160.828 230.077 160.922 230.046 161.016C230.046 161.047 230.014 161.11 229.983 161.141C229.983 161.172 229.952 161.235 229.92 161.266C229.889 161.297 229.889 161.36 229.858 161.423C229.858 161.423 229.858 161.454 229.827 161.454C229.764 161.579 229.701 161.673 229.639 161.798C229.639 161.798 229.639 161.829 229.608 161.829C229.545 161.923 229.514 161.986 229.451 162.08C229.42 162.111 229.42 162.142 229.388 162.174C229.357 162.205 229.326 162.267 229.295 162.299C229.263 162.33 229.263 162.361 229.232 162.393C229.201 162.424 229.169 162.487 229.138 162.518C228.95 162.768 228.731 163.018 228.481 163.237C228.45 163.237 228.45 163.269 228.45 163.269C228.418 163.269 228.418 163.3 228.387 163.3C228.325 163.363 228.293 163.394 228.231 163.457C228.137 163.55 228.043 163.613 227.918 163.707C227.855 163.738 227.824 163.801 227.761 163.832C227.73 163.863 227.699 163.895 227.667 163.895C227.636 163.926 227.574 163.957 227.542 163.988C227.542 163.988 227.542 163.988 227.511 163.988C227.48 164.02 227.448 164.02 227.417 164.051C227.386 164.051 227.386 164.082 227.355 164.082C227.323 164.114 227.292 164.114 227.261 164.145C227.229 164.145 227.229 164.176 227.198 164.176C227.136 164.208 227.073 164.239 226.979 164.27C226.885 164.333 226.791 164.364 226.666 164.427L86.3277 226.069C86.2338 226.1 86.1086 226.163 86.0148 226.194C85.9522 226.226 85.8583 226.257 85.7957 226.288C85.7019 226.319 85.6393 226.351 85.5454 226.351C85.4828 226.351 85.4515 226.382 85.389 226.382C85.2638 226.413 85.1386 226.445 85.0448 226.476C85.0135 226.476 84.9822 226.476 84.9509 226.507C84.8257 226.538 84.7006 226.538 84.5754 226.57C84.4815 226.57 84.419 226.601 84.3564 226.601C84.0122 226.632 83.6367 226.632 83.2925 226.601C83.1986 226.601 83.1047 226.57 83.0422 226.57C82.9483 226.57 82.8544 226.538 82.7605 226.538C82.166 226.445 81.6028 226.226 81.0709 225.975C80.9457 225.913 80.8205 225.85 80.6954 225.787C80.2886 225.537 79.9131 225.256 79.5689 224.943C79.5063 224.88 79.4124 224.786 79.3186 224.692C79.2247 224.598 79.1621 224.536 79.0995 224.442C79.037 224.348 78.9431 224.254 78.8805 224.16C78.8179 224.067 78.7553 224.004 78.6928 223.91L78.6615 223.879C78.5989 223.785 78.5363 223.691 78.505 223.628C78.505 223.628 78.505 223.628 78.505 223.597C78.4737 223.535 78.4424 223.472 78.3799 223.378C78.3173 223.253 78.2234 223.096 78.1608 222.94L43.2718 143.462C42.9589 142.773 42.8024 142.085 42.7711 141.365C42.7085 140.239 42.9276 139.144 43.4282 138.174C43.4282 138.174 43.4282 138.142 43.4595 138.142L43.6472 137.798C44.2731 136.734 45.2431 135.858 46.4634 135.326L186.771 73.715C186.896 73.6524 187.052 73.5898 187.177 73.5585C187.209 73.5585 187.24 73.5272 187.24 73.5272C187.365 73.4647 187.522 73.4334 187.647 73.4021C187.678 73.4021 187.709 73.3708 187.741 73.3708C187.866 73.3395 187.991 73.3082 188.085 73.3082C188.116 73.3082 188.147 73.3082 188.179 73.2769C188.335 73.2456 188.46 73.2456 188.617 73.2143C188.742 73.2143 188.898 73.183 189.024 73.183C189.211 73.183 189.399 73.183 189.618 73.183C189.712 73.183 189.837 73.183 189.931 73.2143C190.119 73.2456 190.306 73.2769 190.463 73.3082L190.87 73.4021C190.901 73.4021 190.901 73.4021 190.932 73.4021C191.026 73.4334 191.12 73.4647 191.245 73.496C191.308 73.5272 191.402 73.5585 191.464 73.5898C191.683 73.6837 191.902 73.7776 192.121 73.8714C192.215 73.934 192.309 73.9653 192.403 74.0279C192.778 74.2469 193.154 74.5285 193.467 74.8102C193.561 74.904 193.655 74.9666 193.748 75.0605C193.874 75.2169 194.03 75.3421 194.124 75.4985C194.187 75.5611 194.249 75.655 194.312 75.7176C194.343 75.7802 194.406 75.8427 194.437 75.9053C194.468 75.9679 194.531 76.0305 194.562 76.0931C194.625 76.1557 194.656 76.2495 194.687 76.3434C194.718 76.406 194.75 76.4686 194.781 76.5624C194.875 76.6563 194.906 76.7502 194.969 76.844Z" fill="#DFE5EA"/>
<path d="M193.78 75.0604L42.7711 141.365C42.7085 140.239 42.9276 139.144 43.4282 138.174C43.4282 138.174 43.4282 138.142 43.4595 138.142L43.6472 137.798L90.3016 53.9705C91.6784 51.4986 94.5258 50.247 97.2481 50.9041L190.525 73.2769L190.932 73.3707C190.964 73.3707 190.964 73.3707 190.995 73.3707C191.089 73.402 191.183 73.4333 191.308 73.4646C191.37 73.4959 191.464 73.5272 191.527 73.5585C191.746 73.6524 191.965 73.7462 192.184 73.8401C192.278 73.9027 192.372 73.934 192.466 73.9965C192.841 74.2156 193.216 74.4972 193.529 74.7788C193.592 74.8727 193.655 74.9666 193.78 75.0604C193.78 75.0604 193.748 75.0604 193.78 75.0604Z" fill="#41648D"/>
<path d="M219.626 162.612L87.8609 220.468L33.5717 96.87C32.0697 93.4906 33.6342 89.5167 37.0136 88.0461L156.513 35.5717C159.892 34.0697 163.866 35.6342 165.337 39.0136L219.626 162.612Z" fill="white"/>
<path d="M157.795 69.2404L60.9509 111.764C59.6055 112.359 58.0096 111.733 57.4151 110.388L56.9457 109.324C56.3512 107.978 56.977 106.382 58.3225 105.788L155.167 63.2639C156.513 62.6694 158.108 63.2952 158.703 64.6407L159.172 65.7046C159.767 67.0501 159.141 68.6459 157.795 69.2404Z" fill="#E4ECF9"/>
<path d="M163.397 82.0383L66.5833 124.562C65.2378 125.157 63.642 124.531 63.0474 123.185L62.5781 122.122C61.9836 120.776 62.6094 119.18 63.9549 118.586L160.768 76.0617C162.114 75.4672 163.709 76.093 164.304 77.4385L164.773 78.5024C165.368 79.8479 164.742 81.4437 163.397 82.0383Z" fill="#E4ECF9"/>
<path d="M168.998 94.8048L72.1843 137.329C70.8388 137.923 69.243 137.298 68.6485 135.952L68.1791 134.888C67.5846 133.543 68.2104 131.947 69.5559 131.352L166.369 88.8283C167.715 88.2338 169.31 88.8596 169.905 90.2051L170.374 91.269C171 92.6145 170.374 94.2103 168.998 94.8048Z" fill="#E4ECF9"/>
<path d="M174.63 107.571L77.7854 150.095C76.4399 150.69 74.844 150.064 74.2495 148.719L73.7802 147.655C73.1856 146.309 73.8114 144.713 75.1569 144.119L171.97 101.595C173.316 101 174.911 101.626 175.506 102.972L175.975 104.036C176.601 105.381 175.975 106.977 174.63 107.571Z" fill="#E4ECF9"/>
<path d="M180.231 120.369L83.4176 162.893C82.0721 163.488 80.4763 162.862 79.8818 161.516L79.4124 160.453C78.8179 159.107 79.4437 157.511 80.7892 156.917L177.602 114.393C178.948 113.798 180.544 114.424 181.138 115.77L181.608 116.833C182.202 118.179 181.576 119.775 180.231 120.369Z" fill="#E4ECF9"/>
<path d="M137.488 152.004C137.363 152.348 137.206 152.692 136.987 153.005L86.6406 225.944L86.3277 226.069C85.7644 226.319 85.1699 226.476 84.5754 226.538C84.4815 226.538 84.4189 226.57 84.3251 226.57C83.2925 226.664 82.2286 226.476 81.2899 226.038C81.196 226.006 81.1021 225.944 81.0083 225.913C80.7579 225.787 80.4763 225.631 80.226 225.443C80.1321 225.381 80.0696 225.318 79.9757 225.255C79.9131 225.193 79.8192 225.13 79.7566 225.068C79.0682 224.473 78.505 223.722 78.1295 222.846L43.2718 143.462C42.9589 142.773 42.8024 142.085 42.7711 141.365C42.7085 140.239 42.9276 139.144 43.4282 138.174C43.4282 138.174 43.4282 138.142 43.4595 138.142L43.6472 137.798C44.2731 136.734 45.2431 135.858 46.4634 135.326L47.7463 134.763L55.4438 135.827L126.505 145.777L129.165 146.153L134.265 146.872C134.64 146.935 135.016 147.029 135.329 147.185C137.206 147.936 138.145 150.095 137.488 152.004Z" fill="#4F79AA"/>
<path d="M194.969 76.844L229.858 156.26C229.889 156.354 229.952 156.447 229.983 156.573C230.014 156.604 230.014 156.666 230.046 156.729C230.077 156.76 230.077 156.823 230.108 156.854C230.108 156.885 230.108 156.885 230.139 156.917C230.139 156.948 230.171 156.979 230.171 157.011C230.202 157.073 230.202 157.167 230.233 157.23C230.265 157.292 230.265 157.386 230.296 157.449V157.48C230.296 157.511 230.296 157.511 230.296 157.543C230.296 157.574 230.327 157.605 230.327 157.636C230.327 157.668 230.327 157.699 230.358 157.73C230.358 157.793 230.39 157.855 230.39 157.918V157.949C230.421 158.075 230.421 158.168 230.421 158.294C230.421 158.294 230.421 158.294 230.421 158.325C230.421 158.387 230.421 158.45 230.421 158.481C230.421 158.544 230.421 158.575 230.421 158.638V158.669C230.421 158.826 230.421 158.982 230.421 159.107C230.421 159.138 230.421 159.201 230.421 159.264C230.421 159.326 230.421 159.357 230.39 159.42C230.39 159.451 230.39 159.514 230.358 159.576C230.358 159.67 230.327 159.764 230.327 159.858C230.327 159.921 230.296 159.983 230.296 160.046C230.265 160.171 230.233 160.327 230.202 160.453C230.171 160.546 230.139 160.64 230.108 160.734C230.077 160.828 230.046 160.922 230.014 161.016C230.014 161.047 229.983 161.11 229.952 161.141C229.952 161.172 229.92 161.235 229.889 161.266C229.858 161.297 229.858 161.36 229.827 161.423C229.827 161.423 229.826 161.454 229.795 161.454C229.733 161.579 229.67 161.673 229.607 161.798C229.607 161.798 229.607 161.829 229.576 161.829C229.514 161.923 229.482 161.986 229.42 162.08C229.388 162.111 229.388 162.142 229.357 162.174C229.326 162.205 229.295 162.267 229.263 162.299C229.232 162.33 229.232 162.361 229.201 162.393C229.169 162.424 229.138 162.487 229.107 162.518C228.919 162.768 228.7 163.018 228.45 163.237C228.418 163.237 228.418 163.269 228.418 163.269C228.387 163.269 228.387 163.3 228.356 163.3C228.293 163.363 228.262 163.394 228.199 163.457C228.106 163.55 228.012 163.613 227.886 163.707C227.824 163.738 227.793 163.801 227.73 163.832C227.699 163.863 227.667 163.895 227.636 163.895C227.605 163.926 227.542 163.957 227.511 163.988C227.48 164.02 227.448 164.051 227.386 164.051C227.355 164.051 227.355 164.082 227.323 164.082C227.292 164.114 227.261 164.114 227.229 164.145C227.198 164.145 227.198 164.176 227.167 164.176C227.104 164.207 227.042 164.239 226.948 164.27C226.854 164.333 226.76 164.364 226.635 164.427L226.322 164.552L138.552 152.254C138.176 152.192 137.801 152.098 137.488 151.942C135.642 151.128 134.703 149 135.36 147.06C135.485 146.716 135.642 146.403 135.861 146.09L138.771 141.866L140.304 139.644L181.076 80.5989L185.488 74.1843L186.771 73.6211C186.896 73.5585 187.052 73.4959 187.177 73.4646C187.209 73.4646 187.24 73.4333 187.24 73.4333C187.365 73.3708 187.522 73.3395 187.647 73.3082C187.678 73.3082 187.709 73.2769 187.741 73.2769C187.866 73.2456 187.991 73.2143 188.085 73.2143C188.116 73.2143 188.147 73.2143 188.179 73.183C188.335 73.1517 188.46 73.1517 188.617 73.1204C188.742 73.1204 188.898 73.0891 189.024 73.0891C189.211 73.0891 189.399 73.0891 189.618 73.0891C189.712 73.0891 189.837 73.0891 189.931 73.1204C190.119 73.1517 190.306 73.183 190.463 73.2143L190.87 73.3082C190.901 73.3082 190.901 73.3082 190.932 73.3082C191.026 73.3395 191.12 73.3708 191.245 73.402C191.308 73.4333 191.402 73.4646 191.464 73.4959C191.683 73.5898 191.902 73.6837 192.121 73.7775C192.215 73.8401 192.309 73.8714 192.403 73.934C192.778 74.153 193.154 74.4346 193.467 74.7163C193.561 74.8101 193.655 74.8727 193.748 74.9666C193.874 75.123 194.03 75.2482 194.124 75.4046C194.186 75.4672 194.249 75.5611 194.312 75.6237C194.343 75.6863 194.405 75.7489 194.437 75.8114C194.468 75.874 194.531 75.9366 194.562 75.9992C194.625 76.0618 194.656 76.1556 194.687 76.2495C194.718 76.3121 194.75 76.3747 194.781 76.4685C194.875 76.6563 194.906 76.7501 194.969 76.844Z" fill="#4F79AA"/>
<path opacity="0.29" d="M229.357 155.196L229.733 156.009C231.172 159.295 229.795 163.05 226.666 164.427L86.3277 226.069C83.1986 227.446 79.475 225.913 78.0356 222.627L77.6602 221.814L128.977 142.648C130.573 140.176 133.42 138.925 136.299 139.425L229.357 155.196Z" fill="#474747"/>
<path d="M229.482 155.477L229.827 156.26C231.203 159.389 229.764 163.05 226.635 164.426L86.3277 226.069C83.1986 227.446 79.5376 226.006 78.1608 222.877L77.8167 222.095L130.009 144.901C131.637 142.492 134.484 141.24 137.331 141.678L229.482 155.477Z" fill="#41648D"/>
<path d="M430.766 190.569V118.648L404.686 170.939H389.784L363.704 118.648V190.569H335.931V70.4187H366.075L397.235 133.202L428.564 70.4187H458.539V190.569H430.766ZM503.835 192.262C499.432 192.262 495.311 191.585 491.472 190.231C487.747 188.764 484.529 186.79 481.82 184.308C479.11 181.713 476.965 178.723 475.384 175.339C473.804 171.842 473.013 168.062 473.013 164.001C473.013 159.601 473.917 155.596 475.723 151.986C477.642 148.376 480.295 145.273 483.682 142.678C487.069 140.083 491.077 138.053 495.706 136.586C500.335 135.12 505.472 134.386 511.117 134.386C514.842 134.386 518.455 134.725 521.955 135.402C525.455 135.966 528.503 136.868 531.1 138.109V134.048C531.1 123.781 525.173 118.648 513.318 118.648C508.464 118.648 503.835 119.494 499.432 121.187C495.029 122.766 490.4 125.192 485.545 128.463L477.586 111.541C483.457 107.705 489.553 104.828 495.875 102.91C502.198 100.992 508.915 100.033 516.028 100.033C529.463 100.033 539.849 103.192 547.188 109.51C554.526 115.828 558.195 125.079 558.195 137.263V160.109C558.195 162.816 558.59 164.734 559.381 165.862C560.284 166.878 561.808 167.498 563.953 167.724V190.569C561.582 191.133 559.437 191.472 557.518 191.585C555.599 191.81 553.849 191.923 552.268 191.923C547.188 191.923 543.349 190.964 540.752 189.046C538.156 187.016 536.519 184.195 535.841 180.585L535.333 176.524C531.382 181.6 526.64 185.493 521.108 188.2C515.689 190.908 509.931 192.262 503.835 192.262ZM511.794 172.801C514.729 172.801 517.552 172.293 520.261 171.278C523.084 170.262 525.398 168.908 527.205 167.216C529.801 165.185 531.1 163.042 531.1 160.786V152.324C528.729 151.422 526.132 150.745 523.31 150.293C520.6 149.729 518.06 149.447 515.689 149.447C510.722 149.447 506.601 150.576 503.327 152.832C500.166 155.088 498.585 158.021 498.585 161.632C498.585 164.903 499.827 167.611 502.311 169.755C504.794 171.785 507.956 172.801 511.794 172.801ZM577.829 190.569V101.726H604.925V190.569H577.829ZM577.829 91.572V67.0341H604.925V91.572H577.829ZM623.134 67.0341H650.23V158.924C650.23 165.693 653.109 169.078 658.866 169.078C660.221 169.078 661.689 168.908 663.27 168.57C664.963 168.119 666.487 167.498 667.842 166.708L671.398 187.016C668.011 188.595 664.116 189.836 659.713 190.739C655.31 191.641 651.189 192.092 647.351 192.092C639.561 192.092 633.577 190.062 629.4 186C625.223 181.939 623.134 176.072 623.134 168.401V67.0341Z" fill="#253951"/>
<path d="M754.541 105.618C754.202 105.166 753.017 104.32 750.985 103.079C748.952 101.838 746.412 100.541 743.364 99.1871C740.316 97.8333 736.985 96.6487 733.372 95.6334C729.76 94.618 726.147 94.1104 722.534 94.1104C712.599 94.1104 707.632 97.4385 707.632 104.095C707.632 106.125 708.14 107.818 709.156 109.171C710.285 110.525 711.865 111.766 713.897 112.894C716.042 113.91 718.696 114.869 721.857 115.771C725.018 116.674 728.687 117.689 732.864 118.817C738.622 120.397 743.815 122.146 748.444 124.063C753.073 125.868 756.968 128.181 760.129 131.002C763.403 133.709 765.887 137.037 767.581 140.986C769.387 144.935 770.29 149.673 770.29 155.201C770.29 161.97 768.992 167.724 766.395 172.462C763.911 177.088 760.581 180.867 756.404 183.8C752.226 186.621 747.428 188.708 742.009 190.062C736.59 191.303 731.002 191.923 725.244 191.923C720.841 191.923 716.325 191.585 711.696 190.908C707.067 190.231 702.551 189.272 698.148 188.031C693.745 186.677 689.455 185.098 685.278 183.293C681.213 181.488 677.431 179.4 673.931 177.031L686.124 152.832C686.576 153.396 688.044 154.468 690.527 156.047C693.011 157.627 696.059 159.206 699.672 160.785C703.398 162.365 707.519 163.775 712.035 165.016C716.551 166.257 721.123 166.878 725.752 166.878C735.574 166.878 740.485 163.888 740.485 157.909C740.485 155.652 739.751 153.791 738.283 152.324C736.816 150.858 734.784 149.56 732.187 148.432C729.59 147.191 726.486 146.063 722.873 145.047C719.373 144.032 715.534 142.904 711.357 141.663C705.825 139.971 701.027 138.166 696.963 136.248C692.898 134.217 689.511 131.904 686.802 129.309C684.205 126.715 682.229 123.725 680.875 120.34C679.633 116.956 679.012 113.007 679.012 108.495C679.012 102.177 680.197 96.5923 682.568 91.7412C684.939 86.89 688.157 82.8286 692.221 79.5569C696.285 76.1724 700.971 73.634 706.277 71.9417C711.696 70.2495 717.397 69.4033 723.381 69.4033C727.558 69.4033 731.679 69.7982 735.743 70.5879C739.808 71.3776 743.703 72.393 747.428 73.634C751.154 74.875 754.597 76.2852 757.758 77.8646C761.032 79.4441 764.024 81.0235 766.734 82.603L754.541 105.618ZM784.047 67.0341H811.143V158.924C811.143 165.693 814.022 169.078 819.78 169.078C821.134 169.078 822.602 168.908 824.183 168.57C825.876 168.119 827.4 167.498 828.755 166.708L832.311 187.016C828.924 188.595 825.029 189.836 820.626 190.739C816.223 191.641 812.103 192.092 808.264 192.092C800.474 192.092 794.49 190.062 790.313 186C786.136 181.939 784.047 176.072 784.047 168.401V67.0341ZM868.038 192.262C858.893 192.262 851.95 189.441 847.208 183.8C842.579 178.047 840.265 169.642 840.265 158.586V101.726H867.36V152.663C867.36 158.078 868.433 162.252 870.578 165.185C872.723 168.006 875.771 169.416 879.723 169.416C883.335 169.416 886.835 168.457 890.222 166.539C893.609 164.621 896.601 161.293 899.198 156.555V101.726H926.293V160.109C926.293 162.816 926.688 164.734 927.478 165.862C928.382 166.878 929.906 167.498 932.051 167.724V190.569C929.454 191.133 927.253 191.472 925.447 191.585C923.64 191.81 922.003 191.923 920.536 191.923C910.826 191.923 905.294 188.144 903.939 180.585L903.431 175.17C899.367 181.036 894.287 185.38 888.19 188.2C882.207 190.908 875.489 192.262 868.038 192.262ZM1003.68 124.91C997.129 125.022 991.202 126.094 985.895 128.125C980.589 130.156 976.751 133.202 974.38 137.263V190.569H947.284V101.726H972.178V119.664C975.227 113.684 979.121 109.002 983.863 105.618C988.718 102.233 993.855 100.485 999.274 100.372C1000.52 100.372 1001.42 100.372 1001.98 100.372C1002.55 100.372 1003.11 100.428 1003.68 100.541V124.91ZM1071.31 192.262C1064.54 192.262 1058.67 190.851 1053.7 188.031C1048.73 185.21 1044.89 181.262 1042.18 176.185V226.615H1015.09V101.726H1038.63V116.11C1041.9 111.033 1045.97 107.084 1050.82 104.264C1055.79 101.443 1061.66 100.033 1068.43 100.033C1074.42 100.033 1079.89 101.218 1084.86 103.587C1089.94 105.956 1094.29 109.228 1097.9 113.402C1101.63 117.464 1104.5 122.315 1106.54 127.956C1108.68 133.484 1109.75 139.463 1109.75 145.894C1109.75 152.55 1108.79 158.698 1106.88 164.339C1104.96 169.98 1102.3 174.888 1098.92 179.062C1095.53 183.123 1091.46 186.339 1086.72 188.708C1081.98 191.077 1076.84 192.262 1071.31 192.262ZM1062.17 169.416C1065.1 169.416 1067.76 168.796 1070.13 167.555C1072.61 166.201 1074.76 164.452 1076.56 162.309C1078.37 160.165 1079.72 157.683 1080.63 154.863C1081.64 151.929 1082.15 148.883 1082.15 145.724C1082.15 142.453 1081.59 139.463 1080.46 136.755C1079.44 133.935 1077.97 131.509 1076.05 129.479C1074.25 127.448 1071.99 125.868 1069.28 124.74C1066.68 123.612 1063.86 123.048 1060.81 123.048C1057.09 123.048 1053.47 124.176 1049.97 126.433C1046.59 128.576 1043.99 131.509 1042.18 135.232V153.509C1043.99 158.021 1046.7 161.801 1050.31 164.847C1054.04 167.893 1057.99 169.416 1062.17 169.416Z" fill="#253951"/>
</svg>
